<svg xmlns="http://www.w3.org/2000/svg" viewBox="0 0 88 68" width="88" height="68">
	<style>
		tspan { white-space:pre }
		.shp0 { fill: #53d153 } 
	</style>
	<path id="Forma 1" class="shp0" d="M83.72 26.64C81.45 21.33 78.39 16.76 74.54 12.92C70.7 9.09 66.12 6.04 60.8 3.77C55.48 1.5 49.9 0.36 44.07 0.36C38.24 0.36 32.66 1.5 27.34 3.77C22.02 6.04 17.44 9.09 13.59 12.92C9.75 16.76 6.69 21.33 4.41 26.64C2.14 31.95 1 37.51 1 43.33C1 51.7 3.26 59.42 7.78 66.49C8.39 67.42 9.25 67.88 10.37 67.88L77.76 67.88C78.88 67.88 79.75 67.42 80.36 66.49C84.88 59.39 87.14 51.67 87.14 43.33C87.14 37.51 86 31.95 83.72 26.64ZM39.72 8.3C40.92 7.1 42.37 6.5 44.07 6.5C45.77 6.5 47.22 7.1 48.42 8.3C49.62 9.5 50.22 10.94 50.22 12.64C50.22 14.33 49.62 15.78 48.42 16.98C47.22 18.18 45.77 18.78 44.07 18.78C42.37 18.78 40.92 18.18 39.72 16.98C38.52 15.78 37.91 14.33 37.91 12.64C37.91 10.94 38.52 9.5 39.72 8.3ZM17.66 47.67C16.45 48.87 15 49.47 13.3 49.47C11.61 49.47 10.16 48.87 8.95 47.67C7.75 46.47 7.15 45.02 7.15 43.33C7.15 41.63 7.75 40.19 8.95 38.99C10.16 37.79 11.61 37.19 13.3 37.19C15 37.19 16.45 37.79 17.66 38.99C18.86 40.19 19.46 41.63 19.46 43.33C19.46 45.02 18.86 46.47 17.66 47.67ZM26.88 26.18C25.68 27.38 24.23 27.98 22.53 27.98C20.84 27.98 19.39 27.38 18.18 26.18C16.98 24.99 16.38 23.54 16.38 21.84C16.38 20.15 16.98 18.7 18.18 17.5C19.39 16.31 20.84 15.71 22.53 15.71C24.23 15.71 25.68 16.31 26.88 17.5C28.09 18.7 28.69 20.15 28.69 21.84C28.69 23.54 28.09 24.98 26.88 26.18ZM54.11 26.59L49.26 44.91C50.86 46 52.01 47.45 52.72 49.27C53.42 51.1 53.52 52.97 53.01 54.88C52.37 57.35 50.94 59.22 48.73 60.49C46.52 61.77 44.18 62.09 41.71 61.45C39.24 60.81 37.37 59.39 36.09 57.19C34.81 54.98 34.49 52.65 35.13 50.18C35.64 48.27 36.65 46.69 38.16 45.46C39.66 44.23 41.38 43.54 43.3 43.38L48.15 25.06C48.38 24.23 48.86 23.59 49.59 23.16C50.33 22.73 51.1 22.63 51.9 22.85C52.7 23.08 53.32 23.55 53.75 24.27C54.19 24.99 54.31 25.76 54.11 26.59ZM61.25 26.18C60.05 24.99 59.45 23.54 59.45 21.84C59.45 20.15 60.05 18.7 61.25 17.5C62.45 16.31 63.9 15.71 65.6 15.71C67.3 15.71 68.75 16.31 69.95 17.5C71.15 18.7 71.75 20.15 71.75 21.84C71.75 23.54 71.15 24.98 69.95 26.18C68.75 27.38 67.3 27.98 65.6 27.98C63.9 27.98 62.45 27.38 61.25 26.18ZM79.18 47.67C77.98 48.87 76.53 49.47 74.83 49.47C73.13 49.47 71.68 48.87 70.48 47.67C69.28 46.47 68.68 45.02 68.68 43.33C68.68 41.63 69.28 40.19 70.48 38.99C71.68 37.79 73.13 37.19 74.83 37.19C76.53 37.19 77.98 37.79 79.18 38.99C80.38 40.19 80.98 41.63 80.98 43.33C80.98 45.02 80.38 46.47 79.18 47.67Z" />
</svg>