<svg xmlns="http://www.w3.org/2000/svg" viewBox="0 0 87 75" width="87" height="75">
	<style>
		tspan { white-space:pre }
		.shp0 { fill: #53d153 } 
	</style>
	<path id="Forma 1" class="shp0" d="M85.2 2.15C84 0.95 82.55 0.35 80.85 0.35L7.02 0.35C5.32 0.35 3.87 0.95 2.67 2.15C1.47 3.35 0.86 4.79 0.86 6.49L0.86 67.87C0.86 69.56 1.47 71.01 2.67 72.21C3.87 73.41 5.32 74.01 7.02 74.01L80.85 74.01C82.55 74.01 84 73.41 85.2 72.21C86.4 71.01 87 69.56 87 67.87L87 6.49C87 4.79 86.4 3.35 85.2 2.15ZM13.17 3.42L31.63 3.42L31.63 9.56L13.17 9.56L13.17 3.42ZM80.85 67.87L7.02 67.87L7.02 61.73L80.85 61.73L80.85 67.87L80.85 67.87ZM25.47 40.34C25.47 35.26 27.28 30.92 30.88 27.32C34.49 23.73 38.84 21.93 43.93 21.93C49.03 21.93 53.38 23.73 56.98 27.32C60.59 30.92 62.39 35.26 62.39 40.34C62.39 45.43 60.59 49.76 56.98 53.36C53.38 56.96 49.03 58.76 43.93 58.76C38.84 58.76 34.49 56.96 30.88 53.36C27.28 49.76 25.47 45.43 25.47 40.34ZM80.85 13.11L80.85 18.76L7.02 18.76L7.02 12.63L37.97 12.63L41.05 6.49L80.85 6.49L80.85 13.11L80.85 13.11ZM52.63 49.02C55.04 46.62 56.24 43.73 56.24 40.34C56.24 36.95 55.04 34.06 52.63 31.66C50.23 29.26 47.33 28.07 43.93 28.07C40.54 28.07 37.64 29.26 35.23 31.66C32.83 34.06 31.63 36.95 31.63 40.34C31.63 43.73 32.83 46.62 35.23 49.02C37.64 51.42 40.54 52.62 43.93 52.62C47.33 52.62 50.23 51.42 52.63 49.02ZM40.66 36.99C39.77 37.88 39.32 38.97 39.32 40.25C39.32 40.69 39.17 41.06 38.89 41.35C38.6 41.64 38.23 41.78 37.78 41.78C37.33 41.78 36.96 41.64 36.67 41.35C36.39 41.06 36.24 40.69 36.24 40.25C36.24 38.14 36.99 36.33 38.5 34.83C40.01 33.32 41.82 32.57 43.93 32.57C44.38 32.57 44.75 32.72 45.04 33.01C45.33 33.29 45.47 33.66 45.47 34.11C45.47 34.56 45.33 34.92 45.04 35.21C44.75 35.5 44.38 35.64 43.93 35.64C42.65 35.64 41.56 36.09 40.66 36.99Z" />
</svg>