<svg xmlns="http://www.w3.org/2000/svg" viewBox="0 0 20 20" width="20" height="20">
	<style>
		tspan { white-space:pre }
		.shp0 { fill: #1d52aa } 
	</style>
	<path id="Forma 1" class="shp0" d="M10 0C4.49 0 0 4.49 0 10C0 15.51 4.49 20 10 20C15.51 20 20 15.51 20 10C20 4.49 15.51 0 10 0ZM12.49 10.35L10.86 10.35C10.86 12.95 10.86 16.15 10.86 16.15L8.45 16.15C8.45 16.15 8.45 12.98 8.45 10.35L7.3 10.35L7.3 8.3L8.45 8.3L8.45 6.98C8.45 6.03 8.9 4.55 10.88 4.55L12.67 4.55L12.67 6.54C12.67 6.54 11.58 6.54 11.37 6.54C11.16 6.54 10.86 6.65 10.86 7.1L10.86 8.3L12.7 8.3L12.49 10.35Z" />
</svg>