<svg xmlns="http://www.w3.org/2000/svg" viewBox="0 0 594 613" width="594" height="613">
	<style>
		tspan { white-space:pre }
		.shp0 { fill: #000000 } 
	</style>
	<path id="Forma 1" class="shp0" d="M412.53 399.51C451.67 357.15 476.08 300.44 476.08 237.98C476.08 106.96 369.45 0 238.04 0C106.63 0 0 106.96 0 237.98C0 369 106.63 475.96 238.04 475.96C291.54 475.96 340.73 458.37 380.58 428.58L557.58 605.54C561.89 609.85 567.28 612 572.66 612C578.05 612 583.79 609.85 587.74 605.54C596 597.28 596 583.64 587.74 575.03L412.53 399.51ZM43.08 237.98C43.08 130.66 130.33 43.07 238.04 43.07C345.39 43.07 433 130.3 433 237.98C433 345.66 345.75 432.89 238.04 432.89C130.33 432.89 43.08 345.31 43.08 237.98Z" />
</svg>