<svg xmlns="http://www.w3.org/2000/svg" viewBox="0 0 20 20" width="20" height="20">
	<style>
		tspan { white-space:pre }
		.shp0 { fill: #0061ff } 
	</style>
	<path id="Forma 1" class="shp0" d="M8.42 8.33C8.42 7.57 7.9 7.57 7.9 7.57L7.62 7.57L5.75 7.57L5.75 7.57L5.75 9.21L7.76 9.21C8.11 9.21 8.42 9.1 8.42 8.33ZM13.38 9.21C12.24 9.21 12.09 10.34 12.09 10.34L14.5 10.34C14.5 10.34 14.52 9.21 13.38 9.21ZM7.9 10.34L5.75 10.34L5.75 12.31L7.65 12.31C7.68 12.31 7.73 12.31 7.79 12.31C8.09 12.3 8.67 12.22 8.67 11.35C8.67 10.33 7.9 10.34 7.9 10.34ZM10 0C4.49 0 0 4.49 0 10C0 15.51 4.49 20 10 20C15.51 20 20 15.51 20 10C20 4.49 15.51 0 10 0ZM11.77 6.69L14.8 6.69L14.8 7.6L11.77 7.6L11.77 6.69ZM10.23 11.45C10.23 13.69 7.9 13.62 7.9 13.62L5.75 13.62L5.69 13.62L4.07 13.62L4.07 6.26L5.69 6.26L5.75 6.26L7.9 6.26C9.06 6.26 9.98 6.9 9.98 8.22C9.98 9.54 8.86 9.62 8.86 9.62C10.34 9.62 10.23 11.45 10.23 11.45ZM15.91 11.33L12.1 11.33C12.1 12.69 13.39 12.61 13.39 12.61C14.62 12.61 14.57 11.82 14.57 11.82L15.87 11.82C15.87 13.92 13.35 13.77 13.35 13.77C10.33 13.77 10.52 10.96 10.52 10.96C10.52 10.96 10.52 8.13 13.35 8.13C16.33 8.13 15.91 11.33 15.91 11.33Z" />
</svg>