<svg xmlns="http://www.w3.org/2000/svg" viewBox="0 0 20 20" width="20" height="20">
	
	<path id="ball" class="social__ball" d="M10 0C4.49 0 0 4.49 0 10C0 15.51 4.49 20 10 20C15.51 20 20 15.51 20 10C20 4.49 15.51 0 10 0ZM16.58 4.72C17.72 6.14 18.41 7.92 18.45 9.87C18.07 9.79 16.46 9.49 14.54 9.49C13.92 9.49 13.27 9.52 12.61 9.6C12.56 9.47 12.5 9.34 12.44 9.2C12.27 8.8 12.09 8.41 11.9 8.02C14.86 6.8 16.28 5.1 16.58 4.72ZM10 1.57C12.13 1.57 14.08 2.36 15.57 3.66C15.33 3.99 14.05 5.58 11.2 6.66C9.88 4.25 8.44 2.25 8.09 1.78C8.71 1.64 9.34 1.57 10 1.57ZM6.37 2.39C6.66 2.79 8.11 4.81 9.46 7.2C5.83 8.16 2.6 8.22 1.83 8.22C1.79 8.22 1.77 8.22 1.74 8.22C2.3 5.64 4.04 3.5 6.37 2.39ZM1.55 10.01C1.55 9.94 1.55 9.87 1.56 9.8C1.61 9.8 1.68 9.81 1.78 9.81C2.82 9.81 6.46 9.72 10.21 8.6C10.44 9.05 10.66 9.5 10.86 9.95C10.77 9.98 10.67 10.01 10.58 10.04C6.36 11.41 4.04 15.02 3.68 15.61C2.36 14.12 1.55 12.16 1.55 10.01ZM10 18.46C8.06 18.46 6.27 17.8 4.85 16.7C5.09 16.23 6.84 13.07 11.47 11.46C11.47 11.46 11.47 11.46 11.48 11.45C12.64 14.48 13.13 17.02 13.26 17.8C12.26 18.23 11.16 18.46 10 18.46ZM14.78 16.97C14.67 16.32 14.22 13.94 13.17 11.04C13.75 10.95 14.33 10.91 14.87 10.91C16.63 10.91 18.01 11.3 18.33 11.4C17.95 13.7 16.63 15.7 14.78 16.97Z" />
</svg>